<svg xmlns="http://www.w3.org/2000/svg" xmlns:xlink="http://www.w3.org/1999/xlink" width="16" height="16" viewBox="0 0 16 16">
    <defs>
        <filter id="prefix__a" width="111.9%" height="108.8%" x="-6%" y="-4.4%" filterUnits="objectBoundingBox">
            <feOffset in="SourceAlpha" result="shadowOffsetOuter1"/>
            <feGaussianBlur in="shadowOffsetOuter1" result="shadowBlurOuter1" stdDeviation="4"/>
            <feColorMatrix in="shadowBlurOuter1" result="shadowMatrixOuter1" values="0 0 0 0 0 0 0 0 0 0 0 0 0 0 0 0 0 0 0.5 0"/>
            <feMerge>
                <feMergeNode in="shadowMatrixOuter1"/>
                <feMergeNode in="SourceGraphic"/>
            </feMerge>
        </filter>
        <path id="prefix__b" d="M3.4 1.667v1.066c0 .587.468 1.067 1.04 1.067h3.12c.572 0 1.04-.48 1.04-1.067V1.667h1.56c.572 0 1.04.48 1.04 1.066v9.6c0 .587-.468 1.067-1.04 1.067H1.84c-.572 0-1.04-.48-1.04-1.067v-9.6c0-.586.468-1.066 1.04-1.066H3.4zM8.08 10.2h-5.2v1.067h5.2V10.2zm1.04-2.133H2.88v1.066h6.24V8.067zM6 5.933H2.88V7H6V5.933zM7.3.6c.286 0 .52.24.52.533v1.334c0 .293-.234.533-.52.533H4.7c-.286 0-.52-.24-.52-.533V1.133C4.18.84 4.414.6 4.7.6z"/>
    </defs>
    <g fill="none" fill-rule="evenodd" filter="url(#prefix__a)" transform="translate(-214 -34)">
        <g transform="translate(216 35)">
            <mask id="prefix__c" fill="#fff">
                <use xlink:href="#prefix__b"/>
            </mask>
            <use fill="#000" fill-rule="nonzero" xlink:href="#prefix__b"/>
            <g fill="#999" mask="url(#prefix__c)">
                <path d="M0 0H16V16H0z" transform="translate(-2 -1)"/>
            </g>
        </g>
    </g>
</svg>
