<svg xmlns="http://www.w3.org/2000/svg" xmlns:xlink="http://www.w3.org/1999/xlink" width="10" height="10" viewBox="0 0 10 10">
    <defs>
        <path id="prefix__a" d="M6.94 3.018l-.037-.014-.149-.362.016-.037c.45-1.042.42-1.073.345-1.15l-.6-.597C6.49.833 6.445.816 6.408.816c-.034 0-.136 0-1.023.41l-.035.016-.366-.15-.015-.038C4.553 0 4.51 0 4.406 0h-.848c-.103 0-.15 0-.537 1.056l-.015.039-.364.151-.035-.015c-.6-.258-.95-.39-1.042-.39-.037 0-.08.018-.105.043l-.601.6c-.076.076-.108.108.366 1.129l.017.038-.149.362-.036.014C0 3.444 0 3.485 0 3.593v.849c0 .108 0 .154 1.06.541l.037.014.149.36-.016.037C.78 6.437.808 6.465.885 6.544l.6.598c.025.025.068.042.105.042.034 0 .136 0 1.024-.41l.035-.017.366.152.014.037C3.447 8 3.49 8 3.594 8h.848c.107 0 .15 0 .538-1.057l.014-.038.365-.15.035.014c.6.259.95.39 1.04.39.037 0 .081-.017.106-.042l.602-.601c.076-.078.108-.11-.367-1.129l-.018-.038.149-.36.035-.014C8 4.555 8 4.515 8 4.405v-.847c0-.109 0-.154-1.06-.54zM4 6.003c-1.103 0-2-.899-2-2.002C2 2.897 2.897 2 4 2s2 .897 2 2c0 1.104-.897 2.003-2 2.003z"/>
    </defs>
    <g fill="none" fill-rule="evenodd" transform="translate(1 1)">
        <mask id="prefix__b" fill="#fff">
            <use xlink:href="#prefix__a"/>
        </mask>
        <use fill="#000" xlink:href="#prefix__a"/>
        <g fill="#999" mask="url(#prefix__b)">
            <path d="M0 0H10V10H0z" transform="translate(-1 -1)"/>
        </g>
    </g>
</svg>
